<svg viewBox="0 0 16 16" xmlns="http://www.w3.org/2000/svg" xml:space="preserve" style="fill-rule:evenodd;clip-rule:evenodd;stroke-linecap:round;stroke-linejoin:round"><path d="M7.254 12.084c0-.552-.448-1.001-1-1.001H1.34c-.552 0-1 .449-1 1.001v.833a1 1 0 0 0 1 1h4.914a1 1 0 0 0 1-1v-.833Zm8.407 0c0-.552-.448-1.001-1-1.001H9.747c-.552 0-1 .449-1 1.001v.833a1 1 0 0 0 1 1h4.914a1 1 0 0 0 1-1v-.833Zm-8.414-4.5c0-.552-.448-1.001-1-1.001H1.333c-.552 0-1 .449-1 1.001v.833a1 1 0 0 0 1 1h4.914a1 1 0 0 0 1-1v-.833Zm8.407 0c0-.552-.448-1.001-1-1.001H9.74c-.552 0-1 .449-1 1.001v.833a1 1 0 0 0 1 1h4.914a1 1 0 0 0 1-1v-.833Zm-8.4-4.5c0-.552-.448-1.001-1-1.001H1.34c-.552 0-1 .449-1 1.001v.833a1 1 0 0 0 1 1h4.914a1 1 0 0 0 1-1v-.833Zm8.407 0c0-.552-.448-1.001-1-1.001H9.747c-.552 0-1 .449-1 1.001v.833a1 1 0 0 0 1 1h4.914a1 1 0 0 0 1-1v-.833Z" style="fill:none;stroke:#000;stroke-width:.7px"/></svg>