<svg viewBox="0 0 16 16" xmlns="http://www.w3.org/2000/svg" xml:space="preserve" style="fill-rule:evenodd;clip-rule:evenodd;stroke-linecap:round;stroke-linejoin:round"><path d="M23.5 10.971c0-1.364-1.491-2.471-3.327-2.471H3.827C1.991 8.5.5 9.607.5 10.971v2.058c0 1.364 1.491 2.471 3.327 2.471h16.346c1.836 0 3.327-1.107 3.327-2.471v-2.058Z" style="fill:none;stroke:#000;stroke-width:1.94px" transform="matrix(.3006 0 0 .40476 .183 3.143)"/><path d="M23.5 10.971c0-1.364-1.491-2.471-3.327-2.471H3.827C1.991 8.5.5 9.607.5 10.971v2.058c0 1.364 1.491 2.471 3.327 2.471h16.346c1.836 0 3.327-1.107 3.327-2.471v-2.058Z" style="fill:none;stroke:#000;stroke-width:1.94px" transform="matrix(.3006 0 0 .40476 8.59 3.143)"/><path d="M23.5 10.971c0-1.364-1.491-2.471-3.327-2.471H3.827C1.991 8.5.5 9.607.5 10.971v2.058c0 1.364 1.491 2.471 3.327 2.471h16.346c1.836 0 3.327-1.107 3.327-2.471v-2.058Z" style="fill:none;stroke:#000;stroke-width:1.94px" transform="matrix(.3006 0 0 .40476 .19 -1.357)"/><path d="M23.5 10.971c0-1.364-1.491-2.471-3.327-2.471H3.827C1.991 8.5.5 9.607.5 10.971v2.058c0 1.364 1.491 2.471 3.327 2.471h16.346c1.836 0 3.327-1.107 3.327-2.471v-2.058Z" style="fill:none;stroke:#000;stroke-width:1.94px" transform="matrix(.3006 0 0 .40476 8.597 -1.357)"/><path d="M23.5 10.971c0-1.364-1.491-2.471-3.327-2.471H3.827C1.991 8.5.5 9.607.5 10.971v2.058c0 1.364 1.491 2.471 3.327 2.471h16.346c1.836 0 3.327-1.107 3.327-2.471v-2.058Z" style="fill:none;stroke:#000;stroke-width:1.94px" transform="matrix(.3006 0 0 .40476 .19 7.643)"/><path d="M23.5 10.971c0-1.364-1.491-2.471-3.327-2.471H3.827C1.991 8.5.5 9.607.5 10.971v2.058c0 1.364 1.491 2.471 3.327 2.471h16.346c1.836 0 3.327-1.107 3.327-2.471v-2.058Z" style="fill:none;stroke:#000;stroke-width:1.94px" transform="matrix(.3006 0 0 .40476 8.597 7.643)"/></svg>